<?xml version="1.0" encoding="UTF-8"?>
<svg xmlns="http://www.w3.org/2000/svg" xmlns:xlink="http://www.w3.org/1999/xlink" viewBox="0 0 50 50" width="50px" height="50px">
<g id="surface114333316">
<path style=" stroke:none;fill-rule:nonzero;fill:rgb(100%,100%,100%);fill-opacity:1;" d="M 25 41.5 C 15.886719 41.5 8.5 34.113281 8.5 25 C 8.5 15.886719 15.886719 8.5 25 8.5 C 34.113281 8.5 41.5 15.886719 41.5 25 C 41.5 34.113281 34.113281 41.5 25 41.5 Z M 25 41.5 "/>
<path style=" stroke:none;fill-rule:nonzero;fill:rgb(12.941177%,58.823532%,95.294118%);fill-opacity:1;" d="M 25 6.601562 C 14.855469 6.601562 6.601562 14.855469 6.601562 25 C 6.601562 35.144531 14.855469 43.398438 25 43.398438 C 35.144531 43.398438 43.398438 35.144531 43.398438 25 C 43.398438 14.855469 35.144531 6.601562 25 6.601562 Z M 30.601562 17.800781 L 27.96875 17.800781 C 26.417969 17.800781 25.800781 18.164062 25.800781 19.246094 L 25.800781 21.800781 L 30.601562 21.800781 L 29.800781 25.800781 L 25.800781 25.800781 L 25.800781 36.199219 L 21 36.199219 L 21 25.800781 L 18.601562 25.800781 L 18.601562 21.800781 L 21 21.800781 L 21 19.582031 C 21 16.199219 22.347656 13.800781 26.265625 13.800781 C 28.363281 13.800781 30.601562 14.601562 30.601562 14.601562 Z M 30.601562 17.800781 "/>
</g>
</svg>
