<?xml version="1.0" encoding="UTF-8"?>
<svg xmlns="http://www.w3.org/2000/svg" xmlns:xlink="http://www.w3.org/1999/xlink" viewBox="0 0 24 24" width="24px" height="24px">
<g id="surface108309128">
<path style=" stroke:none;fill-rule:nonzero;fill:rgb(18.431373%,47.058824%,68.627453%);fill-opacity:1;" d="M 12 2.398438 C 6.699219 2.398438 2.398438 6.699219 2.398438 12 C 2.398438 17.300781 6.699219 21.601562 12 21.601562 C 17.300781 21.601562 21.601562 17.300781 21.601562 12 C 21.601562 6.699219 17.300781 2.398438 12 2.398438 Z M 8.398438 6.722656 C 9.070312 6.722656 9.519531 7.171875 9.519531 7.769531 C 9.519531 8.367188 9.070312 8.816406 8.324219 8.816406 C 7.648438 8.816406 7.199219 8.367188 7.199219 7.769531 C 7.199219 7.171875 7.648438 6.722656 8.398438 6.722656 Z M 9.601562 16 L 7.199219 16 L 7.199219 9.601562 L 9.601562 9.601562 Z M 17.601562 16 L 15.339844 16 L 15.339844 12.503906 C 15.339844 11.535156 14.738281 11.3125 14.511719 11.3125 C 14.289062 11.3125 13.535156 11.460938 13.535156 12.503906 C 13.535156 12.652344 13.535156 16 13.535156 16 L 11.199219 16 L 11.199219 9.601562 L 13.535156 9.601562 L 13.535156 10.492188 C 13.835938 9.972656 14.4375 9.601562 15.566406 9.601562 C 16.695312 9.601562 17.601562 10.492188 17.601562 12.503906 Z M 17.601562 16 "/>
</g>
</svg>
