<?xml version="1.0" encoding="UTF-8"?>
<svg xmlns="http://www.w3.org/2000/svg" xmlns:xlink="http://www.w3.org/1999/xlink" viewBox="0 0 24 24" width="24px" height="24px">
<g id="surface111310061">
<path style=" stroke:none;fill-rule:nonzero;fill:rgb(29.411766%,66.666669%,91.764706%);fill-opacity:1;" d="M 12 2.398438 C 6.699219 2.398438 2.398438 6.699219 2.398438 12 C 2.398438 17.300781 6.699219 21.601562 12 21.601562 C 17.300781 21.601562 21.601562 17.300781 21.601562 12 C 21.601562 6.699219 17.300781 2.398438 12 2.398438 Z M 17.171875 10.027344 C 17.175781 10.132812 17.179688 10.238281 17.179688 10.34375 C 17.179688 13.601562 14.703125 17.351562 10.171875 17.351562 C 8.78125 17.351562 7.488281 16.941406 6.398438 16.242188 C 6.59375 16.265625 6.789062 16.277344 6.988281 16.277344 C 8.140625 16.277344 9.203125 15.886719 10.042969 15.222656 C 8.96875 15.203125 8.058594 14.492188 7.746094 13.511719 C 7.894531 13.542969 8.050781 13.558594 8.207031 13.558594 C 8.433594 13.558594 8.652344 13.527344 8.855469 13.472656 C 7.730469 13.246094 6.882812 12.25 6.882812 11.058594 C 6.882812 11.046875 6.882812 11.035156 6.882812 11.027344 C 7.214844 11.210938 7.59375 11.320312 7.996094 11.335938 C 7.335938 10.894531 6.902344 10.140625 6.902344 9.285156 C 6.902344 8.832031 7.023438 8.410156 7.234375 8.046875 C 8.449219 9.539062 10.261719 10.519531 12.308594 10.621094 C 12.265625 10.441406 12.246094 10.253906 12.246094 10.058594 C 12.246094 8.699219 13.347656 7.597656 14.707031 7.597656 C 15.414062 7.597656 16.054688 7.898438 16.503906 8.375 C 17.066406 8.265625 17.59375 8.058594 18.066406 7.777344 C 17.882812 8.351562 17.492188 8.835938 16.984375 9.140625 C 17.480469 9.082031 17.957031 8.949219 18.398438 8.753906 C 18.070312 9.246094 17.652344 9.679688 17.171875 10.027344 Z M 17.171875 10.027344 "/>
</g>
</svg>
