<?xml version="1.0" encoding="UTF-8"?>
<svg xmlns="http://www.w3.org/2000/svg" xmlns:xlink="http://www.w3.org/1999/xlink" viewBox="0 0 30 30" width="32px" height="32px">
<g id="surface114342819">
<path style=" stroke:none;fill-rule:nonzero;fill:rgb(100%,100%,100%);fill-opacity:1;" d="M 15 24.148438 C 9.945312 24.148438 5.851562 20.054688 5.851562 15 C 5.851562 9.945312 9.945312 5.851562 15 5.851562 C 20.054688 5.851562 24.148438 9.945312 24.148438 15 C 24.148438 20.054688 20.054688 24.148438 15 24.148438 Z M 15 24.148438 "/>
<path style=" stroke:none;fill-rule:nonzero;fill:rgb(29.411766%,66.666669%,91.764706%);fill-opacity:1;" d="M 15 5.398438 C 9.699219 5.398438 5.398438 9.699219 5.398438 15 C 5.398438 20.300781 9.699219 24.601562 15 24.601562 C 20.300781 24.601562 24.601562 20.300781 24.601562 15 C 24.601562 9.699219 20.300781 5.398438 15 5.398438 Z M 20.171875 13.027344 C 20.175781 13.132812 20.179688 13.238281 20.179688 13.34375 C 20.179688 16.601562 17.703125 20.351562 13.171875 20.351562 C 11.78125 20.351562 10.488281 19.941406 9.398438 19.242188 C 9.59375 19.265625 9.789062 19.277344 9.988281 19.277344 C 11.140625 19.277344 12.203125 18.886719 13.042969 18.222656 C 11.96875 18.203125 11.058594 17.492188 10.746094 16.511719 C 10.894531 16.542969 11.050781 16.558594 11.207031 16.558594 C 11.433594 16.558594 11.652344 16.527344 11.855469 16.472656 C 10.730469 16.246094 9.882812 15.25 9.882812 14.058594 C 9.882812 14.046875 9.882812 14.035156 9.882812 14.027344 C 10.214844 14.210938 10.59375 14.320312 10.996094 14.335938 C 10.335938 13.894531 9.902344 13.140625 9.902344 12.285156 C 9.902344 11.832031 10.023438 11.410156 10.234375 11.046875 C 11.449219 12.539062 13.261719 13.519531 15.308594 13.621094 C 15.265625 13.441406 15.246094 13.253906 15.246094 13.058594 C 15.246094 11.699219 16.347656 10.597656 17.707031 10.597656 C 18.414062 10.597656 19.054688 10.898438 19.503906 11.375 C 20.066406 11.265625 20.59375 11.058594 21.066406 10.777344 C 20.882812 11.351562 20.492188 11.835938 19.984375 12.140625 C 20.480469 12.082031 20.957031 11.949219 21.398438 11.753906 C 21.070312 12.246094 20.652344 12.679688 20.171875 13.027344 Z M 20.171875 13.027344 "/>
</g>
</svg>
